# xmcd
#
# Track frame offsets:
#	150
#	16037
#	32047
#	47175
#	65142
#	83070
#	99912
#	111762
#	128195
#	145310
#	161192
#	180055
#	199642
#	216695
#	231482
#	248612
#	264867
#	278037
#	294435
#	309605
#
# Disc length: 4305 seconds
#
# Revision: 11
# Processed by: cddbd v1.5.2PL0 Copyright (c) Steve Scherf et al.
# Submitted via: EasyCDDAExtractor 15.3.0.1
#
DISCID=1d10cf14
DTITLE=Ana Gabriel - The Best
DYEAR=1992
DGENRE=Latin
TTITLE0=Quien Como Tu
TTITLE1=Pecado Original
TTITLE2=Ay Amor
TTITLE3=Destino (Sin Publico)
TTITLE4=May Y Arena
TTITLE5=Y Aqui Estoy
TTITLE6=Malvado
TTITLE7=Amor Con Desamor
TTITLE8=Pensar En Ti
TTITLE9=Que Poco Hombre
TTITLE10=Es Demasiado Tarde
TTITLE11=Amor
TTITLE12=Simplemente Amigos
TTITLE13=A Tu Lado
TTITLE14=Es El Amor Quien Llega
TTITLE15=Que Nos Paso
TTITLE16=Buscame
TTITLE17=Eso No Basta
TTITLE18=Llevame
TTITLE19=Lo Quiero Todo
EXTD=
EXTT0=
EXTT1=
EXTT2=
EXTT3=
EXTT4=
EXTT5=
EXTT6=
EXTT7=
EXTT8=
EXTT9=
EXTT10=
EXTT11=
EXTT12=
EXTT13=
EXTT14=
EXTT15=
EXTT16=
EXTT17=
EXTT18=
EXTT19=
PLAYORDER=
